<svg viewBox="0 0 600 400" height="400" width="600" xmlns="http://www.w3.org/2000/svg" style="font-family:&quot;Lucida Grande&quot;, &quot;Lucida Sans Unicode&quot;, Arial, Helvetica, sans-serif;font-size:12px;" class="highcharts-root" version="1.1" xmlns:xlink="http://www.w3.org/1999/xlink"><desc>Created with Highcharts 6.1.0</desc><defs><clipPath id="highcharts-2hl9967-15"><rect fill="none" height="449" width="246" y="0" x="0"></rect></clipPath></defs><rect ry="0" rx="0" height="400" width="600" y="0" x="0" class="highcharts-background" fill="#ffffff"></rect><rect height="246" width="449" y="53" x="141" class="highcharts-plot-background" fill="none"></rect><g class="highcharts-pane-group"></g><g class="highcharts-grid highcharts-xaxis-grid"><path opacity="1" d="M 141 54.5 L 590 54.5" class="highcharts-grid-line" fill="none"></path><path opacity="1" d="M 141 69.5 L 590 69.5" class="highcharts-grid-line" fill="none"></path><path opacity="1" d="M 141 84.5 L 590 84.5" class="highcharts-grid-line" fill="none"></path><path opacity="1" d="M 141 99.5 L 590 99.5" class="highcharts-grid-line" fill="none"></path><path opacity="1" d="M 141 113.5 L 590 113.5" class="highcharts-grid-line" fill="none"></path><path opacity="1" d="M 141 128.5 L 590 128.5" class="highcharts-grid-line" fill="none"></path><path opacity="1" d="M 141 143.5 L 590 143.5" class="highcharts-grid-line" fill="none"></path><path opacity="1" d="M 141 158.5 L 590 158.5" class="highcharts-grid-line" fill="none"></path><path opacity="1" d="M 141 173.5 L 590 173.5" class="highcharts-grid-line" fill="none"></path><path opacity="1" d="M 141 188.5 L 590 188.5" class="highcharts-grid-line" fill="none"></path><path opacity="1" d="M 141 203.5 L 590 203.5" class="highcharts-grid-line" fill="none"></path><path opacity="1" d="M 141 217.5 L 590 217.5" class="highcharts-grid-line" fill="none"></path><path opacity="1" d="M 141 232.5 L 590 232.5" class="highcharts-grid-line" fill="none"></path><path opacity="1" d="M 141 247.5 L 590 247.5" class="highcharts-grid-line" fill="none"></path><path opacity="1" d="M 141 262.5 L 590 262.5" class="highcharts-grid-line" fill="none"></path><path opacity="1" d="M 141 277.5 L 590 277.5" class="highcharts-grid-line" fill="none"></path><path opacity="1" d="M 141 292.5 L 590 292.5" class="highcharts-grid-line" fill="none"></path></g><g class="highcharts-grid highcharts-yaxis-grid"><path opacity="1" d="M 140.5 53 L 140.5 299" class="highcharts-grid-line" stroke-width="1" stroke="#e6e6e6" fill="none"></path><path opacity="1" d="M 230.5 53 L 230.5 299" class="highcharts-grid-line" stroke-width="1" stroke="#e6e6e6" fill="none"></path><path opacity="1" d="M 320.5 53 L 320.5 299" class="highcharts-grid-line" stroke-width="1" stroke="#e6e6e6" fill="none"></path><path opacity="1" d="M 409.5 53 L 409.5 299" class="highcharts-grid-line" stroke-width="1" stroke="#e6e6e6" fill="none"></path><path opacity="1" d="M 499.5 53 L 499.5 299" class="highcharts-grid-line" stroke-width="1" stroke="#e6e6e6" fill="none"></path><path opacity="1" d="M 590.5 53 L 590.5 299" class="highcharts-grid-line" stroke-width="1" stroke="#e6e6e6" fill="none"></path></g><rect height="246" width="449" y="53" x="141" class="highcharts-plot-border" fill="none"></rect><g class="highcharts-axis highcharts-xaxis"><path opacity="1" d="M 141 54.5 L 131 54.5" stroke-width="1" stroke="#ccd6eb" class="highcharts-tick" fill="none"></path><path opacity="1" d="M 141 69.5 L 131 69.5" stroke-width="1" stroke="#ccd6eb" class="highcharts-tick" fill="none"></path><path opacity="1" d="M 141 84.5 L 131 84.5" stroke-width="1" stroke="#ccd6eb" class="highcharts-tick" fill="none"></path><path opacity="1" d="M 141 99.5 L 131 99.5" stroke-width="1" stroke="#ccd6eb" class="highcharts-tick" fill="none"></path><path opacity="1" d="M 141 113.5 L 131 113.5" stroke-width="1" stroke="#ccd6eb" class="highcharts-tick" fill="none"></path><path opacity="1" d="M 141 128.5 L 131 128.5" stroke-width="1" stroke="#ccd6eb" class="highcharts-tick" fill="none"></path><path opacity="1" d="M 141 143.5 L 131 143.5" stroke-width="1" stroke="#ccd6eb" class="highcharts-tick" fill="none"></path><path opacity="1" d="M 141 158.5 L 131 158.5" stroke-width="1" stroke="#ccd6eb" class="highcharts-tick" fill="none"></path><path opacity="1" d="M 141 173.5 L 131 173.5" stroke-width="1" stroke="#ccd6eb" class="highcharts-tick" fill="none"></path><path opacity="1" d="M 141 188.5 L 131 188.5" stroke-width="1" stroke="#ccd6eb" class="highcharts-tick" fill="none"></path><path opacity="1" d="M 141 203.5 L 131 203.5" stroke-width="1" stroke="#ccd6eb" class="highcharts-tick" fill="none"></path><path opacity="1" d="M 141 217.5 L 131 217.5" stroke-width="1" stroke="#ccd6eb" class="highcharts-tick" fill="none"></path><path opacity="1" d="M 141 232.5 L 131 232.5" stroke-width="1" stroke="#ccd6eb" class="highcharts-tick" fill="none"></path><path opacity="1" d="M 141 247.5 L 131 247.5" stroke-width="1" stroke="#ccd6eb" class="highcharts-tick" fill="none"></path><path opacity="1" d="M 141 262.5 L 131 262.5" stroke-width="1" stroke="#ccd6eb" class="highcharts-tick" fill="none"></path><path opacity="1" d="M 141 277.5 L 131 277.5" stroke-width="1" stroke="#ccd6eb" class="highcharts-tick" fill="none"></path><path opacity="1" d="M 141 292.5 L 131 292.5" stroke-width="1" stroke="#ccd6eb" class="highcharts-tick" fill="none"></path><path d="M 140.5 53 L 140.5 299" stroke-width="1" stroke="#ccd6eb" class="highcharts-axis-line" fill="none"></path></g><g class="highcharts-axis highcharts-yaxis"><text y="338" style="color:#666666;fill:#666666;" class="highcharts-axis-title" transform="translate(0,0)" text-anchor="middle" x="365.5"><tspan>probability</tspan></text><path d="M 141 299 L 590 299" class="highcharts-axis-line" fill="none"></path></g><g class="highcharts-series-group"><g clip-path="url(#highcharts-2hl9967-15)" transform="translate(590,299) rotate(90) scale(-1,1) scale(1 1)" class="highcharts-series highcharts-series-0 highcharts-column-series"><rect class="highcharts-point" stroke-width="1" stroke="#ffffff" fill="#ff5e57" height="122" width="3" y="-0.5" x="243.5"></rect><rect class="highcharts-point" stroke-width="1" stroke="#ffffff" fill="#ff5e57" height="222" width="3" y="-0.5" x="241.5"></rect><rect class="highcharts-point" stroke-width="1" stroke="#ffffff" fill="#ff5e57" height="340" width="3" y="-0.5" x="239.5"></rect><rect class="highcharts-point" stroke-width="1" stroke="#ffffff" fill="#ff5e57" height="340" width="3" y="-0.5" x="237.5"></rect><rect class="highcharts-point" stroke-width="1" stroke="#ffffff" fill="#ff5e57" height="340" width="3" y="-0.5" x="235.5"></rect><rect class="highcharts-point" stroke-width="1" stroke="#ffffff" fill="#ff5e57" height="340" width="3" y="-0.5" x="233.5"></rect><rect class="highcharts-point" stroke-width="1" stroke="#ffffff" fill="#ff5e57" height="340" width="3" y="-0.5" x="231.5"></rect><rect class="highcharts-point" stroke-width="1" stroke="#ffffff" fill="#ff5e57" height="340" width="3" y="-0.5" x="229.5"></rect><rect class="highcharts-point" stroke-width="1" stroke="#ffffff" fill="#ff5e57" height="340" width="3" y="-0.5" x="226.5"></rect><rect class="highcharts-point" stroke-width="1" stroke="#ffffff" fill="#ff5e57" height="340" width="3" y="-0.5" x="224.5"></rect><rect class="highcharts-point" stroke-width="1" stroke="#ffffff" fill="#ff5e57" height="340" width="3" y="-0.5" x="222.5"></rect><rect class="highcharts-point" stroke-width="1" stroke="#ffffff" fill="#ff5e57" height="340" width="3" y="-0.5" x="220.5"></rect><rect class="highcharts-point" stroke-width="1" stroke="#ffffff" fill="#ff5e57" height="43" width="3" y="-0.5" x="218.5"></rect><rect class="highcharts-point" stroke-width="1" stroke="#ffffff" fill="#ff5e57" height="387" width="3" y="-0.5" x="216.5"></rect><rect class="highcharts-point" stroke-width="1" stroke="#ffffff" fill="#ff5e57" height="340" width="3" y="-0.5" x="214.5"></rect><rect class="highcharts-point" stroke-width="1" stroke="#ffffff" fill="#ff5e57" height="435" width="3" y="-0.5" x="212.5"></rect><rect class="highcharts-point" stroke-width="1" stroke="#ffffff" fill="#ff5e57" height="340" width="3" y="-0.5" x="209.5"></rect><rect class="highcharts-point" stroke-width="1" stroke="#ffffff" fill="#ff5e57" height="340" width="3" y="-0.5" x="207.5"></rect><rect class="highcharts-point" stroke-width="1" stroke="#ffffff" fill="#ff5e57" height="340" width="3" y="-0.5" x="205.5"></rect><rect class="highcharts-point" stroke-width="1" stroke="#ffffff" fill="#ff5e57" height="340" width="3" y="-0.5" x="203.5"></rect><rect class="highcharts-point" stroke-width="1" stroke="#ffffff" fill="#ff5e57" height="436" width="3" y="-0.5" x="201.5"></rect><rect class="highcharts-point" stroke-width="1" stroke="#ffffff" fill="#ff5e57" height="268" width="3" y="-0.5" x="199.5"></rect><rect class="highcharts-point" stroke-width="1" stroke="#ffffff" fill="#ff5e57" height="17" width="3" y="-0.5" x="197.5"></rect><rect class="highcharts-point" stroke-width="1" stroke="#ffffff" fill="#ff5e57" height="348" width="3" y="-0.5" x="195.5"></rect><rect class="highcharts-point" stroke-width="1" stroke="#ffffff" fill="#ff5e57" height="130" width="3" y="-0.5" x="193.5"></rect><rect class="highcharts-point" stroke-width="1" stroke="#ffffff" fill="#ff5e57" height="204" width="3" y="-0.5" x="190.5"></rect><rect class="highcharts-point" stroke-width="1" stroke="#ffffff" fill="#ff5e57" height="438" width="3" y="-0.5" x="188.5"></rect><rect class="highcharts-point" stroke-width="1" stroke="#ffffff" fill="#ff5e57" height="124" width="3" y="-0.5" x="186.5"></rect><rect class="highcharts-point" stroke-width="1" stroke="#ffffff" fill="#ff5e57" height="0" width="3" y="0.5" x="184.5"></rect><rect class="highcharts-point" stroke-width="1" stroke="#ffffff" fill="#ff5e57" height="386" width="3" y="-0.5" x="182.5"></rect><rect class="highcharts-point" stroke-width="1" stroke="#ffffff" fill="#ff5e57" height="201" width="3" y="-0.5" x="180.5"></rect><rect class="highcharts-point" stroke-width="1" stroke="#ffffff" fill="#ff5e57" height="117" width="3" y="-0.5" x="178.5"></rect><rect class="highcharts-point" stroke-width="1" stroke="#ffffff" fill="#ff5e57" height="182" width="3" y="-0.5" x="176.5"></rect><rect class="highcharts-point" stroke-width="1" stroke="#ffffff" fill="#ff5e57" height="199" width="3" y="-0.5" x="173.5"></rect><rect class="highcharts-point" stroke-width="1" stroke="#ffffff" fill="#ff5e57" height="247" width="3" y="-0.5" x="171.5"></rect><rect class="highcharts-point" stroke-width="1" stroke="#ffffff" fill="#ff5e57" height="211" width="3" y="-0.5" x="169.5"></rect><rect class="highcharts-point" stroke-width="1" stroke="#ffffff" fill="#ff5e57" height="380" width="3" y="-0.5" x="167.5"></rect><rect class="highcharts-point" stroke-width="1" stroke="#ffffff" fill="#ff5e57" height="417" width="3" y="-0.5" x="165.5"></rect><rect class="highcharts-point" stroke-width="1" stroke="#ffffff" fill="#ff5e57" height="281" width="3" y="-0.5" x="163.5"></rect><rect class="highcharts-point" stroke-width="1" stroke="#ffffff" fill="#ff5e57" height="418" width="3" y="-0.5" x="161.5"></rect><rect class="highcharts-point" stroke-width="1" stroke="#ffffff" fill="#ff5e57" height="403" width="3" y="-0.5" x="159.5"></rect><rect class="highcharts-point" stroke-width="1" stroke="#ffffff" fill="#ff5e57" height="361" width="3" y="-0.5" x="156.5"></rect><rect class="highcharts-point" stroke-width="1" stroke="#ffffff" fill="#ff5e57" height="362" width="3" y="-0.5" x="154.5"></rect><rect class="highcharts-point" stroke-width="1" stroke="#ffffff" fill="#ff5e57" height="406" width="3" y="-0.5" x="152.5"></rect><rect class="highcharts-point" stroke-width="1" stroke="#ffffff" fill="#ff5e57" height="376" width="3" y="-0.5" x="150.5"></rect><rect class="highcharts-point" stroke-width="1" stroke="#ffffff" fill="#ff5e57" height="219" width="3" y="-0.5" x="148.5"></rect><rect class="highcharts-point" stroke-width="1" stroke="#ffffff" fill="#ff5e57" height="226" width="3" y="-0.5" x="146.5"></rect><rect class="highcharts-point" stroke-width="1" stroke="#ffffff" fill="#ff5e57" height="329" width="3" y="-0.5" x="144.5"></rect><rect class="highcharts-point" stroke-width="1" stroke="#ffffff" fill="#ff5e57" height="230" width="3" y="-0.5" x="142.5"></rect><rect class="highcharts-point" stroke-width="1" stroke="#ffffff" fill="#ff5e57" height="191" width="3" y="-0.5" x="140.5"></rect><rect class="highcharts-point" stroke-width="1" stroke="#ffffff" fill="#ff5e57" height="77" width="3" y="-0.5" x="137.5"></rect><rect class="highcharts-point" stroke-width="1" stroke="#ffffff" fill="#ff5e57" height="248" width="3" y="-0.5" x="135.5"></rect><rect class="highcharts-point" stroke-width="1" stroke="#ffffff" fill="#ff5e57" height="291" width="3" y="-0.5" x="133.5"></rect><rect class="highcharts-point" stroke-width="1" stroke="#ffffff" fill="#ff5e57" height="371" width="3" y="-0.5" x="131.5"></rect><rect class="highcharts-point" stroke-width="1" stroke="#ffffff" fill="#ff5e57" height="221" width="3" y="-0.5" x="129.5"></rect><rect class="highcharts-point" stroke-width="1" stroke="#ffffff" fill="#ff5e57" height="351" width="3" y="-0.5" x="127.5"></rect><rect class="highcharts-point" stroke-width="1" stroke="#ffffff" fill="#ff5e57" height="360" width="3" y="-0.5" x="125.5"></rect><rect class="highcharts-point" stroke-width="1" stroke="#ffffff" fill="#ff5e57" height="339" width="3" y="-0.5" x="123.5"></rect><rect class="highcharts-point" stroke-width="1" stroke="#ffffff" fill="#ff5e57" height="322" width="3" y="-0.5" x="120.5"></rect><rect class="highcharts-point" stroke-width="1" stroke="#ffffff" fill="#ff5e57" height="354" width="3" y="-0.5" x="118.5"></rect><rect class="highcharts-point" stroke-width="1" stroke="#ffffff" fill="#ff5e57" height="340" width="3" y="-0.5" x="116.5"></rect><rect class="highcharts-point" stroke-width="1" stroke="#ffffff" fill="#ff5e57" height="334" width="3" y="-0.5" x="114.5"></rect><rect class="highcharts-point" stroke-width="1" stroke="#ffffff" fill="#ff5e57" height="337" width="3" y="-0.5" x="112.5"></rect><rect class="highcharts-point" stroke-width="1" stroke="#ffffff" fill="#ff5e57" height="340" width="3" y="-0.5" x="110.5"></rect><rect class="highcharts-point" stroke-width="1" stroke="#ffffff" fill="#ff5e57" height="338" width="3" y="-0.5" x="108.5"></rect><rect class="highcharts-point" stroke-width="1" stroke="#ffffff" fill="#ff5e57" height="339" width="3" y="-0.5" x="106.5"></rect><rect class="highcharts-point" stroke-width="1" stroke="#ffffff" fill="#ff5e57" height="323" width="3" y="-0.5" x="103.5"></rect><rect class="highcharts-point" stroke-width="1" stroke="#ffffff" fill="#ff5e57" height="343" width="3" y="-0.5" x="101.5"></rect><rect class="highcharts-point" stroke-width="1" stroke="#ffffff" fill="#ff5e57" height="340" width="3" y="-0.5" x="99.5"></rect><rect class="highcharts-point" stroke-width="1" stroke="#ffffff" fill="#ff5e57" height="340" width="3" y="-0.5" x="97.5"></rect><rect class="highcharts-point" stroke-width="1" stroke="#ffffff" fill="#ff5e57" height="335" width="3" y="-0.5" x="95.5"></rect><rect class="highcharts-point" stroke-width="1" stroke="#ffffff" fill="#ff5e57" height="338" width="3" y="-0.5" x="93.5"></rect><rect class="highcharts-point" stroke-width="1" stroke="#ffffff" fill="#ff5e57" height="419" width="3" y="-0.5" x="91.5"></rect><rect class="highcharts-point" stroke-width="1" stroke="#ffffff" fill="#ff5e57" height="303" width="3" y="-0.5" x="89.5"></rect><rect class="highcharts-point" stroke-width="1" stroke="#ffffff" fill="#ff5e57" height="340" width="3" y="-0.5" x="86.5"></rect><rect class="highcharts-point" stroke-width="1" stroke="#ffffff" fill="#ff5e57" height="340" width="3" y="-0.5" x="84.5"></rect><rect class="highcharts-point" stroke-width="1" stroke="#ffffff" fill="#ff5e57" height="340" width="3" y="-0.5" x="82.5"></rect><rect class="highcharts-point" stroke-width="1" stroke="#ffffff" fill="#ff5e57" height="340" width="3" y="-0.5" x="80.5"></rect><rect class="highcharts-point" stroke-width="1" stroke="#ffffff" fill="#ff5e57" height="340" width="3" y="-0.5" x="78.5"></rect><rect class="highcharts-point" stroke-width="1" stroke="#ffffff" fill="#ff5e57" height="340" width="3" y="-0.5" x="76.5"></rect><rect class="highcharts-point" stroke-width="1" stroke="#ffffff" fill="#ff5e57" height="340" width="3" y="-0.5" x="74.5"></rect><rect class="highcharts-point" stroke-width="1" stroke="#ffffff" fill="#ff5e57" height="341" width="3" y="-0.5" x="72.5"></rect><rect class="highcharts-point" stroke-width="1" stroke="#ffffff" fill="#ff5e57" height="340" width="3" y="-0.5" x="70.5"></rect><rect class="highcharts-point" stroke-width="1" stroke="#ffffff" fill="#ff5e57" height="438" width="3" y="-0.5" x="67.5"></rect><rect class="highcharts-point" stroke-width="1" stroke="#ffffff" fill="#ff5e57" height="340" width="3" y="-0.5" x="65.5"></rect><rect class="highcharts-point" stroke-width="1" stroke="#ffffff" fill="#ff5e57" height="340" width="3" y="-0.5" x="63.5"></rect><rect class="highcharts-point" stroke-width="1" stroke="#ffffff" fill="#ff5e57" height="340" width="3" y="-0.5" x="61.5"></rect><rect class="highcharts-point" stroke-width="1" stroke="#ffffff" fill="#ff5e57" height="340" width="3" y="-0.5" x="59.5"></rect><rect class="highcharts-point" stroke-width="1" stroke="#ffffff" fill="#ff5e57" height="339" width="3" y="-0.5" x="57.5"></rect><rect class="highcharts-point" stroke-width="1" stroke="#ffffff" fill="#ff5e57" height="340" width="3" y="-0.5" x="55.5"></rect><rect class="highcharts-point" stroke-width="1" stroke="#ffffff" fill="#ff5e57" height="340" width="3" y="-0.5" x="53.5"></rect><rect class="highcharts-point" stroke-width="1" stroke="#ffffff" fill="#ff5e57" height="340" width="3" y="-0.5" x="50.5"></rect><rect class="highcharts-point" stroke-width="1" stroke="#ffffff" fill="#ff5e57" height="340" width="3" y="-0.5" x="48.5"></rect><rect class="highcharts-point" stroke-width="1" stroke="#ffffff" fill="#ff5e57" height="340" width="3" y="-0.5" x="46.5"></rect><rect class="highcharts-point" stroke-width="1" stroke="#ffffff" fill="#ff5e57" height="24" width="3" y="-0.5" x="44.5"></rect><rect class="highcharts-point" stroke-width="1" stroke="#ffffff" fill="#ff5e57" height="340" width="3" y="-0.5" x="42.5"></rect><rect class="highcharts-point" stroke-width="1" stroke="#ffffff" fill="#ff5e57" height="340" width="3" y="-0.5" x="40.5"></rect><rect class="highcharts-point" stroke-width="1" stroke="#ffffff" fill="#ff5e57" height="340" width="3" y="-0.5" x="38.5"></rect><rect class="highcharts-point" stroke-width="1" stroke="#ffffff" fill="#ff5e57" height="340" width="3" y="-0.5" x="36.5"></rect><rect class="highcharts-point" stroke-width="1" stroke="#ffffff" fill="#ff5e57" height="340" width="3" y="-0.5" x="33.5"></rect><rect class="highcharts-point" stroke-width="1" stroke="#ffffff" fill="#ff5e57" height="340" width="3" y="-0.5" x="31.5"></rect><rect class="highcharts-point" stroke-width="1" stroke="#ffffff" fill="#ff5e57" height="340" width="3" y="-0.5" x="29.5"></rect><rect class="highcharts-point" stroke-width="1" stroke="#ffffff" fill="#ff5e57" height="340" width="3" y="-0.5" x="27.5"></rect><rect class="highcharts-point" stroke-width="1" stroke="#ffffff" fill="#ff5e57" height="340" width="3" y="-0.5" x="25.5"></rect><rect class="highcharts-point" stroke-width="1" stroke="#ffffff" fill="#ff5e57" height="340" width="3" y="-0.5" x="23.5"></rect><rect class="highcharts-point" stroke-width="1" stroke="#ffffff" fill="#ff5e57" height="376" width="3" y="-0.5" x="21.5"></rect><rect class="highcharts-point" stroke-width="1" stroke="#ffffff" fill="#ff5e57" height="340" width="3" y="-0.5" x="19.5"></rect><rect class="highcharts-point" stroke-width="1" stroke="#ffffff" fill="#ff5e57" height="340" width="3" y="-0.5" x="17.5"></rect><rect class="highcharts-point" stroke-width="1" stroke="#ffffff" fill="#ff5e57" height="340" width="3" y="-0.5" x="14.5"></rect><rect class="highcharts-point" stroke-width="1" stroke="#ffffff" fill="#ff5e57" height="340" width="3" y="-0.5" x="12.5"></rect><rect class="highcharts-point" stroke-width="1" stroke="#ffffff" fill="#ff5e57" height="340" width="3" y="-0.5" x="10.5"></rect><rect class="highcharts-point" stroke-width="1" stroke="#ffffff" fill="#ff5e57" height="340" width="3" y="-0.5" x="8.5"></rect><rect class="highcharts-point" stroke-width="1" stroke="#ffffff" fill="#ff5e57" height="442" width="3" y="-0.5" x="6.5"></rect><rect class="highcharts-point" stroke-width="1" stroke="#ffffff" fill="#ff5e57" height="340" width="3" y="-0.5" x="4.5"></rect><rect class="highcharts-point" stroke-width="1" stroke="#ffffff" fill="#ff5e57" height="340" width="3" y="-0.5" x="2.5"></rect><rect class="highcharts-point" stroke-width="1" stroke="#ffffff" fill="#ff5e57" height="340" width="3" y="-0.5" x="0.5"></rect></g><g clip-path="none" transform="translate(590,299) rotate(90) scale(-1,1) scale(1 1)" class="highcharts-markers highcharts-series-0 highcharts-column-series"></g><g clip-path="url(#highcharts-2hl9967-15)" transform="translate(590,299) rotate(90) scale(-1,1) scale(1 1)" class="highcharts-series highcharts-series-1 highcharts-column-series"><rect class="highcharts-point" stroke-width="1" stroke="#ffffff" fill="#0be881" height="328" width="3" y="121.5" x="243.5"></rect><rect class="highcharts-point" stroke-width="1" stroke="#ffffff" fill="#0be881" height="228" width="3" y="221.5" x="241.5"></rect><rect class="highcharts-point" stroke-width="1" stroke="#ffffff" fill="#0be881" height="110" width="3" y="339.5" x="239.5"></rect><rect class="highcharts-point" stroke-width="1" stroke="#ffffff" fill="#0be881" height="110" width="3" y="339.5" x="237.5"></rect><rect class="highcharts-point" stroke-width="1" stroke="#ffffff" fill="#0be881" height="110" width="3" y="339.5" x="235.5"></rect><rect class="highcharts-point" stroke-width="1" stroke="#ffffff" fill="#0be881" height="110" width="3" y="339.5" x="233.5"></rect><rect class="highcharts-point" stroke-width="1" stroke="#ffffff" fill="#0be881" height="110" width="3" y="339.5" x="231.5"></rect><rect class="highcharts-point" stroke-width="1" stroke="#ffffff" fill="#0be881" height="110" width="3" y="339.5" x="229.5"></rect><rect class="highcharts-point" stroke-width="1" stroke="#ffffff" fill="#0be881" height="110" width="3" y="339.5" x="226.5"></rect><rect class="highcharts-point" stroke-width="1" stroke="#ffffff" fill="#0be881" height="110" width="3" y="339.5" x="224.5"></rect><rect class="highcharts-point" stroke-width="1" stroke="#ffffff" fill="#0be881" height="110" width="3" y="339.5" x="222.5"></rect><rect class="highcharts-point" stroke-width="1" stroke="#ffffff" fill="#0be881" height="110" width="3" y="339.5" x="220.5"></rect><rect class="highcharts-point" stroke-width="1" stroke="#ffffff" fill="#0be881" height="407" width="3" y="42.5" x="218.5"></rect><rect class="highcharts-point" stroke-width="1" stroke="#ffffff" fill="#0be881" height="63" width="3" y="386.5" x="216.5"></rect><rect class="highcharts-point" stroke-width="1" stroke="#ffffff" fill="#0be881" height="110" width="3" y="339.5" x="214.5"></rect><rect class="highcharts-point" stroke-width="1" stroke="#ffffff" fill="#0be881" height="15" width="3" y="434.5" x="212.5"></rect><rect class="highcharts-point" stroke-width="1" stroke="#ffffff" fill="#0be881" height="110" width="3" y="339.5" x="209.5"></rect><rect class="highcharts-point" stroke-width="1" stroke="#ffffff" fill="#0be881" height="110" width="3" y="339.5" x="207.5"></rect><rect class="highcharts-point" stroke-width="1" stroke="#ffffff" fill="#0be881" height="110" width="3" y="339.5" x="205.5"></rect><rect class="highcharts-point" stroke-width="1" stroke="#ffffff" fill="#0be881" height="110" width="3" y="339.5" x="203.5"></rect><rect class="highcharts-point" stroke-width="1" stroke="#ffffff" fill="#0be881" height="14" width="3" y="435.5" x="201.5"></rect><rect class="highcharts-point" stroke-width="1" stroke="#ffffff" fill="#0be881" height="182" width="3" y="267.5" x="199.5"></rect><rect class="highcharts-point" stroke-width="1" stroke="#ffffff" fill="#0be881" height="433" width="3" y="16.5" x="197.5"></rect><rect class="highcharts-point" stroke-width="1" stroke="#ffffff" fill="#0be881" height="102" width="3" y="347.5" x="195.5"></rect><rect class="highcharts-point" stroke-width="1" stroke="#ffffff" fill="#0be881" height="320" width="3" y="129.5" x="193.5"></rect><rect class="highcharts-point" stroke-width="1" stroke="#ffffff" fill="#0be881" height="246" width="3" y="203.5" x="190.5"></rect><rect class="highcharts-point" stroke-width="1" stroke="#ffffff" fill="#0be881" height="12" width="3" y="437.5" x="188.5"></rect><rect class="highcharts-point" stroke-width="1" stroke="#ffffff" fill="#0be881" height="326" width="3" y="123.5" x="186.5"></rect><rect class="highcharts-point" stroke-width="1" stroke="#ffffff" fill="#0be881" height="450" width="3" y="-0.5" x="184.5"></rect><rect class="highcharts-point" stroke-width="1" stroke="#ffffff" fill="#0be881" height="64" width="3" y="385.5" x="182.5"></rect><rect class="highcharts-point" stroke-width="1" stroke="#ffffff" fill="#0be881" height="249" width="3" y="200.5" x="180.5"></rect><rect class="highcharts-point" stroke-width="1" stroke="#ffffff" fill="#0be881" height="333" width="3" y="116.5" x="178.5"></rect><rect class="highcharts-point" stroke-width="1" stroke="#ffffff" fill="#0be881" height="268" width="3" y="181.5" x="176.5"></rect><rect class="highcharts-point" stroke-width="1" stroke="#ffffff" fill="#0be881" height="251" width="3" y="198.5" x="173.5"></rect><rect class="highcharts-point" stroke-width="1" stroke="#ffffff" fill="#0be881" height="203" width="3" y="246.5" x="171.5"></rect><rect class="highcharts-point" stroke-width="1" stroke="#ffffff" fill="#0be881" height="239" width="3" y="210.5" x="169.5"></rect><rect class="highcharts-point" stroke-width="1" stroke="#ffffff" fill="#0be881" height="70" width="3" y="379.5" x="167.5"></rect><rect class="highcharts-point" stroke-width="1" stroke="#ffffff" fill="#0be881" height="33" width="3" y="416.5" x="165.5"></rect><rect class="highcharts-point" stroke-width="1" stroke="#ffffff" fill="#0be881" height="169" width="3" y="280.5" x="163.5"></rect><rect class="highcharts-point" stroke-width="1" stroke="#ffffff" fill="#0be881" height="32" width="3" y="417.5" x="161.5"></rect><rect class="highcharts-point" stroke-width="1" stroke="#ffffff" fill="#0be881" height="47" width="3" y="402.5" x="159.5"></rect><rect class="highcharts-point" stroke-width="1" stroke="#ffffff" fill="#0be881" height="89" width="3" y="360.5" x="156.5"></rect><rect class="highcharts-point" stroke-width="1" stroke="#ffffff" fill="#0be881" height="88" width="3" y="361.5" x="154.5"></rect><rect class="highcharts-point" stroke-width="1" stroke="#ffffff" fill="#0be881" height="44" width="3" y="405.5" x="152.5"></rect><rect class="highcharts-point" stroke-width="1" stroke="#ffffff" fill="#0be881" height="74" width="3" y="375.5" x="150.5"></rect><rect class="highcharts-point" stroke-width="1" stroke="#ffffff" fill="#0be881" height="231" width="3" y="218.5" x="148.5"></rect><rect class="highcharts-point" stroke-width="1" stroke="#ffffff" fill="#0be881" height="224" width="3" y="225.5" x="146.5"></rect><rect class="highcharts-point" stroke-width="1" stroke="#ffffff" fill="#0be881" height="121" width="3" y="328.5" x="144.5"></rect><rect class="highcharts-point" stroke-width="1" stroke="#ffffff" fill="#0be881" height="220" width="3" y="229.5" x="142.5"></rect><rect class="highcharts-point" stroke-width="1" stroke="#ffffff" fill="#0be881" height="259" width="3" y="190.5" x="140.5"></rect><rect class="highcharts-point" stroke-width="1" stroke="#ffffff" fill="#0be881" height="373" width="3" y="76.5" x="137.5"></rect><rect class="highcharts-point" stroke-width="1" stroke="#ffffff" fill="#0be881" height="202" width="3" y="247.5" x="135.5"></rect><rect class="highcharts-point" stroke-width="1" stroke="#ffffff" fill="#0be881" height="159" width="3" y="290.5" x="133.5"></rect><rect class="highcharts-point" stroke-width="1" stroke="#ffffff" fill="#0be881" height="79" width="3" y="370.5" x="131.5"></rect><rect class="highcharts-point" stroke-width="1" stroke="#ffffff" fill="#0be881" height="229" width="3" y="220.5" x="129.5"></rect><rect class="highcharts-point" stroke-width="1" stroke="#ffffff" fill="#0be881" height="99" width="3" y="350.5" x="127.5"></rect><rect class="highcharts-point" stroke-width="1" stroke="#ffffff" fill="#0be881" height="90" width="3" y="359.5" x="125.5"></rect><rect class="highcharts-point" stroke-width="1" stroke="#ffffff" fill="#0be881" height="111" width="3" y="338.5" x="123.5"></rect><rect class="highcharts-point" stroke-width="1" stroke="#ffffff" fill="#0be881" height="128" width="3" y="321.5" x="120.5"></rect><rect class="highcharts-point" stroke-width="1" stroke="#ffffff" fill="#0be881" height="96" width="3" y="353.5" x="118.5"></rect><rect class="highcharts-point" stroke-width="1" stroke="#ffffff" fill="#0be881" height="110" width="3" y="339.5" x="116.5"></rect><rect class="highcharts-point" stroke-width="1" stroke="#ffffff" fill="#0be881" height="116" width="3" y="333.5" x="114.5"></rect><rect class="highcharts-point" stroke-width="1" stroke="#ffffff" fill="#0be881" height="113" width="3" y="336.5" x="112.5"></rect><rect class="highcharts-point" stroke-width="1" stroke="#ffffff" fill="#0be881" height="110" width="3" y="339.5" x="110.5"></rect><rect class="highcharts-point" stroke-width="1" stroke="#ffffff" fill="#0be881" height="112" width="3" y="337.5" x="108.5"></rect><rect class="highcharts-point" stroke-width="1" stroke="#ffffff" fill="#0be881" height="111" width="3" y="338.5" x="106.5"></rect><rect class="highcharts-point" stroke-width="1" stroke="#ffffff" fill="#0be881" height="127" width="3" y="322.5" x="103.5"></rect><rect class="highcharts-point" stroke-width="1" stroke="#ffffff" fill="#0be881" height="107" width="3" y="342.5" x="101.5"></rect><rect class="highcharts-point" stroke-width="1" stroke="#ffffff" fill="#0be881" height="110" width="3" y="339.5" x="99.5"></rect><rect class="highcharts-point" stroke-width="1" stroke="#ffffff" fill="#0be881" height="110" width="3" y="339.5" x="97.5"></rect><rect class="highcharts-point" stroke-width="1" stroke="#ffffff" fill="#0be881" height="115" width="3" y="334.5" x="95.5"></rect><rect class="highcharts-point" stroke-width="1" stroke="#ffffff" fill="#0be881" height="112" width="3" y="337.5" x="93.5"></rect><rect class="highcharts-point" stroke-width="1" stroke="#ffffff" fill="#0be881" height="31" width="3" y="418.5" x="91.5"></rect><rect class="highcharts-point" stroke-width="1" stroke="#ffffff" fill="#0be881" height="147" width="3" y="302.5" x="89.5"></rect><rect class="highcharts-point" stroke-width="1" stroke="#ffffff" fill="#0be881" height="110" width="3" y="339.5" x="86.5"></rect><rect class="highcharts-point" stroke-width="1" stroke="#ffffff" fill="#0be881" height="110" width="3" y="339.5" x="84.5"></rect><rect class="highcharts-point" stroke-width="1" stroke="#ffffff" fill="#0be881" height="110" width="3" y="339.5" x="82.5"></rect><rect class="highcharts-point" stroke-width="1" stroke="#ffffff" fill="#0be881" height="110" width="3" y="339.5" x="80.5"></rect><rect class="highcharts-point" stroke-width="1" stroke="#ffffff" fill="#0be881" height="110" width="3" y="339.5" x="78.5"></rect><rect class="highcharts-point" stroke-width="1" stroke="#ffffff" fill="#0be881" height="110" width="3" y="339.5" x="76.5"></rect><rect class="highcharts-point" stroke-width="1" stroke="#ffffff" fill="#0be881" height="110" width="3" y="339.5" x="74.5"></rect><rect class="highcharts-point" stroke-width="1" stroke="#ffffff" fill="#0be881" height="109" width="3" y="340.5" x="72.5"></rect><rect class="highcharts-point" stroke-width="1" stroke="#ffffff" fill="#0be881" height="110" width="3" y="339.5" x="70.5"></rect><rect class="highcharts-point" stroke-width="1" stroke="#ffffff" fill="#0be881" height="12" width="3" y="437.5" x="67.5"></rect><rect class="highcharts-point" stroke-width="1" stroke="#ffffff" fill="#0be881" height="110" width="3" y="339.5" x="65.5"></rect><rect class="highcharts-point" stroke-width="1" stroke="#ffffff" fill="#0be881" height="110" width="3" y="339.5" x="63.5"></rect><rect class="highcharts-point" stroke-width="1" stroke="#ffffff" fill="#0be881" height="110" width="3" y="339.5" x="61.5"></rect><rect class="highcharts-point" stroke-width="1" stroke="#ffffff" fill="#0be881" height="110" width="3" y="339.5" x="59.5"></rect><rect class="highcharts-point" stroke-width="1" stroke="#ffffff" fill="#0be881" height="111" width="3" y="338.5" x="57.5"></rect><rect class="highcharts-point" stroke-width="1" stroke="#ffffff" fill="#0be881" height="110" width="3" y="339.5" x="55.5"></rect><rect class="highcharts-point" stroke-width="1" stroke="#ffffff" fill="#0be881" height="110" width="3" y="339.5" x="53.5"></rect><rect class="highcharts-point" stroke-width="1" stroke="#ffffff" fill="#0be881" height="110" width="3" y="339.5" x="50.5"></rect><rect class="highcharts-point" stroke-width="1" stroke="#ffffff" fill="#0be881" height="110" width="3" y="339.5" x="48.5"></rect><rect class="highcharts-point" stroke-width="1" stroke="#ffffff" fill="#0be881" height="110" width="3" y="339.5" x="46.5"></rect><rect class="highcharts-point" stroke-width="1" stroke="#ffffff" fill="#0be881" height="426" width="3" y="23.5" x="44.5"></rect><rect class="highcharts-point" stroke-width="1" stroke="#ffffff" fill="#0be881" height="110" width="3" y="339.5" x="42.5"></rect><rect class="highcharts-point" stroke-width="1" stroke="#ffffff" fill="#0be881" height="110" width="3" y="339.5" x="40.5"></rect><rect class="highcharts-point" stroke-width="1" stroke="#ffffff" fill="#0be881" height="110" width="3" y="339.5" x="38.5"></rect><rect class="highcharts-point" stroke-width="1" stroke="#ffffff" fill="#0be881" height="110" width="3" y="339.5" x="36.5"></rect><rect class="highcharts-point" stroke-width="1" stroke="#ffffff" fill="#0be881" height="110" width="3" y="339.5" x="33.5"></rect><rect class="highcharts-point" stroke-width="1" stroke="#ffffff" fill="#0be881" height="110" width="3" y="339.5" x="31.5"></rect><rect class="highcharts-point" stroke-width="1" stroke="#ffffff" fill="#0be881" height="110" width="3" y="339.5" x="29.5"></rect><rect class="highcharts-point" stroke-width="1" stroke="#ffffff" fill="#0be881" height="110" width="3" y="339.5" x="27.5"></rect><rect class="highcharts-point" stroke-width="1" stroke="#ffffff" fill="#0be881" height="110" width="3" y="339.5" x="25.5"></rect><rect class="highcharts-point" stroke-width="1" stroke="#ffffff" fill="#0be881" height="110" width="3" y="339.5" x="23.5"></rect><rect class="highcharts-point" stroke-width="1" stroke="#ffffff" fill="#0be881" height="74" width="3" y="375.5" x="21.5"></rect><rect class="highcharts-point" stroke-width="1" stroke="#ffffff" fill="#0be881" height="110" width="3" y="339.5" x="19.5"></rect><rect class="highcharts-point" stroke-width="1" stroke="#ffffff" fill="#0be881" height="110" width="3" y="339.5" x="17.5"></rect><rect class="highcharts-point" stroke-width="1" stroke="#ffffff" fill="#0be881" height="110" width="3" y="339.5" x="14.5"></rect><rect class="highcharts-point" stroke-width="1" stroke="#ffffff" fill="#0be881" height="110" width="3" y="339.5" x="12.5"></rect><rect class="highcharts-point" stroke-width="1" stroke="#ffffff" fill="#0be881" height="110" width="3" y="339.5" x="10.5"></rect><rect class="highcharts-point" stroke-width="1" stroke="#ffffff" fill="#0be881" height="110" width="3" y="339.5" x="8.5"></rect><rect class="highcharts-point" stroke-width="1" stroke="#ffffff" fill="#0be881" height="8" width="3" y="441.5" x="6.5"></rect><rect class="highcharts-point" stroke-width="1" stroke="#ffffff" fill="#0be881" height="110" width="3" y="339.5" x="4.5"></rect><rect class="highcharts-point" stroke-width="1" stroke="#ffffff" fill="#0be881" height="110" width="3" y="339.5" x="2.5"></rect><rect class="highcharts-point" stroke-width="1" stroke="#ffffff" fill="#0be881" height="110" width="3" y="339.5" x="0.5"></rect></g><g clip-path="none" transform="translate(590,299) rotate(90) scale(-1,1) scale(1 1)" class="highcharts-markers highcharts-series-1 highcharts-column-series"></g></g><text y="24" style="color:#333333;font-size:18px;fill:#333333;" class="highcharts-title" text-anchor="middle" x="300"><tspan>Results of Prediciton</tspan></text><text y="52" style="color:#666666;fill:#666666;" class="highcharts-subtitle" text-anchor="middle" x="300"></text><g transform="translate(188,356)" class="highcharts-legend"><rect visibility="visible" height="29" width="224" y="0" x="0" ry="0" rx="0" class="highcharts-legend-box" fill="none"></rect><g><g><g transform="translate(8,3)" class="highcharts-legend-item highcharts-column-series highcharts-color-undefined highcharts-series-0"><text y="15" text-anchor="start" style="color:#333333;font-size:12px;font-weight:bold;cursor:pointer;fill:#333333;" x="21"><tspan>non-probiotics</tspan></text><rect class="highcharts-point" ry="6" rx="6" fill="#ff5e57" height="12" width="12" y="4" x="2"></rect></g><g transform="translate(136.9390640258789,3)" class="highcharts-legend-item highcharts-column-series highcharts-color-undefined highcharts-series-1"><text text-anchor="start" style="color:#333333;font-size:12px;font-weight:bold;cursor:pointer;fill:#333333;" y="15" x="21"><tspan>probiotics</tspan></text><rect class="highcharts-point" ry="6" rx="6" fill="#0be881" height="12" width="12" y="4" x="2"></rect></g></g></g></g><g class="highcharts-axis-labels highcharts-xaxis-labels"><text opacity="1" y="58" transform="translate(0,0)" text-anchor="end" style="color:#666666;cursor:default;font-size:11px;fill:#666666;" x="126">NZ_AYZO01000001.1</text><text opacity="1" y="73" transform="translate(0,0)" text-anchor="end" style="color:#666666;cursor:default;font-size:11px;fill:#666666;" x="126">NZ_AYZO01000105.1</text><text opacity="1" y="88" transform="translate(0,0)" text-anchor="end" style="color:#666666;cursor:default;font-size:11px;fill:#666666;" x="126">NZ_AYZO01000111.1</text><text opacity="1" y="103" transform="translate(0,0)" text-anchor="end" style="color:#666666;cursor:default;font-size:11px;fill:#666666;" x="126">NZ_AYZO01000013.1</text><text opacity="1" y="117" transform="translate(0,0)" text-anchor="end" style="color:#666666;cursor:default;font-size:11px;fill:#666666;" x="126">NZ_AYZO01000002.1</text><text opacity="1" y="132" transform="translate(0,0)" text-anchor="end" style="color:#666666;cursor:default;font-size:11px;fill:#666666;" x="126">NZ_AYZO01000026.1</text><text opacity="1" y="147" transform="translate(0,0)" text-anchor="end" style="color:#666666;cursor:default;font-size:11px;fill:#666666;" x="126">NZ_AYZO01000032.1</text><text opacity="1" y="162" transform="translate(0,0)" text-anchor="end" style="color:#666666;cursor:default;font-size:11px;fill:#666666;" x="126">NZ_AYZO01000039.1</text><text opacity="1" y="177" transform="translate(0,0)" text-anchor="end" style="color:#666666;cursor:default;font-size:11px;fill:#666666;" x="126">NZ_AYZO01000045.1</text><text opacity="1" y="192" transform="translate(0,0)" text-anchor="end" style="color:#666666;cursor:default;font-size:11px;fill:#666666;" x="126">NZ_AYZO01000051.1</text><text opacity="1" y="207" transform="translate(0,0)" text-anchor="end" style="color:#666666;cursor:default;font-size:11px;fill:#666666;" x="126">NZ_AYZO01000058.1</text><text opacity="1" y="221" transform="translate(0,0)" text-anchor="end" style="color:#666666;cursor:default;font-size:11px;fill:#666666;" x="126">NZ_AYZO01000064.1</text><text opacity="1" y="236" transform="translate(0,0)" text-anchor="end" style="color:#666666;cursor:default;font-size:11px;fill:#666666;" x="126">NZ_AYZO01000070.1</text><text opacity="1" y="251" transform="translate(0,0)" text-anchor="end" style="color:#666666;cursor:default;font-size:11px;fill:#666666;" x="126">NZ_AYZO01000077.1</text><text opacity="1" y="266" transform="translate(0,0)" text-anchor="end" style="color:#666666;cursor:default;font-size:11px;fill:#666666;" x="126">NZ_AYZO01000083.1</text><text opacity="1" y="281" transform="translate(0,0)" text-anchor="end" style="color:#666666;cursor:default;font-size:11px;fill:#666666;" x="126">NZ_AYZO01000009.1</text><text opacity="1" y="296" transform="translate(0,0)" text-anchor="end" style="color:#666666;cursor:default;font-size:11px;fill:#666666;" x="126">NZ_AYZO01000096.1</text></g><g class="highcharts-axis-labels highcharts-yaxis-labels"><text opacity="1" y="318" transform="translate(0,0)" text-anchor="middle" style="color:#666666;cursor:default;font-size:11px;fill:#666666;" x="141">0</text><text opacity="1" y="318" transform="translate(0,0)" text-anchor="middle" style="color:#666666;cursor:default;font-size:11px;fill:#666666;" x="230.8">20</text><text opacity="1" y="318" transform="translate(0,0)" text-anchor="middle" style="color:#666666;cursor:default;font-size:11px;fill:#666666;" x="320.6">40</text><text opacity="1" y="318" transform="translate(0,0)" text-anchor="middle" style="color:#666666;cursor:default;font-size:11px;fill:#666666;" x="410.4">60</text><text opacity="1" y="318" transform="translate(0,0)" text-anchor="middle" style="color:#666666;cursor:default;font-size:11px;fill:#666666;" x="500.2">80</text><text opacity="1" y="318" transform="translate(0,0)" text-anchor="middle" style="color:#666666;cursor:default;font-size:11px;fill:#666666;" x="579.4444332122803">100</text></g><text y="395" style="cursor:pointer;color:#999999;font-size:9px;fill:#999999;" text-anchor="end" class="highcharts-credits" x="590">Highcharts.com</text></svg>